<svg width="67" height="67" viewBox="0 0 67 67" fill="none" xmlns="http://www.w3.org/2000/svg">
<rect width="67" height="67" rx="2" fill="#E476D3"/>
<path d="M13 49.5V18.1613C13 17.4409 13.4323 16 15.1613 16C16.8903 16 20.2043 16 21.6452 16C22.3656 16 24.0226 16.2161 24.8871 17.0806C25.9677 18.1613 24.8871 20.3226 30.2903 20.3226C34.6129 20.3226 45.7796 20.3226 50.8226 20.3226C52.2634 20.3226 55.1452 20.971 55.1452 23.5645C55.1452 26.1581 55.1452 26.086 55.1452 25.7258V26.8065M13 49.5C13 50.2204 13.6484 51.6613 16.2419 51.6613C18.8355 51.6613 40.3763 51.6613 50.8226 51.6613C51.543 51.6613 53.2 51.0129 54.0645 48.4194C54.929 45.8258 58.0269 35.0914 59.4677 30.0484C59.828 28.9677 59.9 26.8065 57.3065 26.8065C54.7129 26.8065 54.7849 26.8065 55.1452 26.8065M13 49.5C14.4409 44.8172 17.5387 34.5871 18.4032 31.129C19.2677 27.671 22.3656 26.8065 23.8065 26.8065H55.1452" stroke="black" stroke-opacity="0.4" stroke-width="3"/>
</svg>
