<svg width="67" height="67" viewBox="0 0 67 67" fill="none" xmlns="http://www.w3.org/2000/svg">
<path d="M0 2C0 0.895429 0.895431 0 2 0H65C66.1046 0 67 0.895431 67 2V65C67 66.1046 66.1046 67 65 67H2C0.895429 67 0 66.1046 0 65V2Z" fill="#DDEAFD"/>
<path d="M16.664 28.68V33.08H21.988V35.72H16.664V41H13.628V26.04H23.176V28.68H16.664ZM24.6863 30H27.6123V31.166C28.8736 30.4327 30.0469 29.956 31.1323 29.736V32.706C30.0323 32.926 29.0129 33.1827 28.0743 33.476L27.6343 33.63V41H24.6863V30ZM37.1838 41.264C35.4678 41.264 34.2285 40.8313 33.4658 39.966C32.7031 39.1007 32.3218 37.7 32.3218 35.764C32.3218 33.74 32.7178 32.2293 33.5098 31.232C34.3165 30.2347 35.5631 29.736 37.2498 29.736C38.8045 29.736 39.9778 30.154 40.7698 30.99C41.5765 31.8113 41.9798 33.0507 41.9798 34.708L41.7598 36.754H35.2918C35.3211 37.2673 35.4091 37.6633 35.5558 37.942C35.7171 38.206 35.9665 38.3967 36.3038 38.514C36.6558 38.6167 37.1398 38.668 37.7558 38.668C38.2398 38.668 38.8191 38.6533 39.4938 38.624C40.1685 38.5947 40.6598 38.5653 40.9678 38.536L41.5838 38.47L41.6278 40.648C39.9705 41.0587 38.4891 41.264 37.1838 41.264ZM39.0758 34.51C39.0758 33.63 38.9365 33.0213 38.6578 32.684C38.3938 32.332 37.9171 32.156 37.2278 32.156C36.5238 32.156 36.0251 32.3393 35.7318 32.706C35.4385 33.058 35.2845 33.6593 35.2698 34.51H39.0758ZM48.3987 41.264C46.6827 41.264 45.4433 40.8313 44.6807 39.966C43.918 39.1007 43.5367 37.7 43.5367 35.764C43.5367 33.74 43.9327 32.2293 44.7247 31.232C45.5313 30.2347 46.778 29.736 48.4647 29.736C50.0193 29.736 51.1927 30.154 51.9847 30.99C52.7913 31.8113 53.1947 33.0507 53.1947 34.708L52.9747 36.754H46.5067C46.536 37.2673 46.624 37.6633 46.7707 37.942C46.932 38.206 47.1813 38.3967 47.5187 38.514C47.8707 38.6167 48.3547 38.668 48.9707 38.668C49.4547 38.668 50.034 38.6533 50.7087 38.624C51.3833 38.5947 51.8747 38.5653 52.1827 38.536L52.7987 38.47L52.8427 40.648C51.1853 41.0587 49.704 41.264 48.3987 41.264ZM50.2907 34.51C50.2907 33.63 50.1513 33.0213 49.8727 32.684C49.6087 32.332 49.132 32.156 48.4427 32.156C47.7387 32.156 47.24 32.3393 46.9467 32.706C46.6533 33.058 46.4993 33.6593 46.4847 34.51H50.2907Z" fill="black" fill-opacity="0.5"/>
</svg>
