<svg width="67" height="67" viewBox="0 0 67 67" fill="none" xmlns="http://www.w3.org/2000/svg">
<rect width="67" height="67" rx="2" fill="#9666DE"/>
<path d="M49.7097 20.5323C49.7097 30.6183 49.7097 51.2226 49.7097 52.9516C49.7097 54.6807 48.2688 55.1129 47.5484 55.1129C38.9032 55.1129 21.1807 55.1129 19.4516 55.1129C17.7226 55.1129 17.2903 53.6721 17.2903 52.9516V12.9677C17.2903 11.2387 18.7312 10.8065 19.4516 10.8065C25.5753 10.8065 38.0387 10.8065 38.9032 10.8065M49.7097 20.5323C49.3495 20.172 48.4129 19.2355 47.5484 18.371C46.6839 17.5065 43.586 14.4086 42.1452 12.9677C41.4248 12.2473 39.7678 10.8065 38.9032 10.8065M49.7097 20.5323C46.828 20.5323 40.8484 20.5323 39.9839 20.5323C39.1194 20.5323 38.9032 19.8118 38.9032 19.4516V10.8065" stroke="black" stroke-opacity="0.4" stroke-width="3"/>
</svg>
