<svg width="67" height="67" viewBox="0 0 67 67" fill="none" xmlns="http://www.w3.org/2000/svg">
<rect width="67" height="67" rx="2" fill="#FFD646"/>
<path d="M12.9677 24.6108V21.4735C12.9677 18.9636 15.7053 17.6389 17.0742 17.2903H18.382M12.9677 24.6108V45.5265C13.3099 46.9209 14.6103 49.7097 17.0742 49.7097H49.9258C51.2946 49.7097 54.0322 48.8731 54.0322 45.5265V24.6108M12.9677 24.6108H25.5683M54.0322 24.6108V21.4735C53.69 20.0791 52.3896 17.2903 49.9258 17.2903H44.7927M54.0322 24.6108H51.979M18.382 17.2903L25.5683 24.6108M18.382 17.2903H27.8424M25.5683 24.6108H35.0287M27.8424 17.2903L35.0287 24.6108M27.8424 17.2903H36.5798M35.0287 24.6108H43.7661M36.5798 17.2903L43.7661 24.6108M36.5798 17.2903H44.7927M43.7661 24.6108H51.979M44.7927 17.2903L51.979 24.6108M27.3403 31.6834V40.5127C27.3403 41.4938 27.895 43.1615 30.1138 41.9843L38.4345 37.5696C39.359 37.0791 40.6534 35.8037 38.4345 34.6265L30.1138 30.2118C29.1893 29.7213 27.3403 29.3289 27.3403 31.6834Z" stroke="black" stroke-opacity="0.4" stroke-width="3"/>
</svg>
