<svg width="17" height="19" viewBox="0 0 17 19" fill="none" xmlns="http://www.w3.org/2000/svg">
<path d="M14.5 6.5V7C14.5 10 14.5 16.2 14.5 17C14.5 17.8 13.5 18.3333 12.5 18.5C10.1667 18.5 5.2 18.5 4 18.5C2.8 18.5 2.5 17.5 2.5 17V7V6.5M14.5 6.5H2.5M14.5 6.5C15 6.5 16 6.2 16 5C16 3.8 15 3.5 14.5 3.5H10.5M2.5 6.5C2 6.5 1 6.2 1 5C1 3.8 1.66667 3.5 2 3.5H6.5M6.5 3.5C6.5 2.66667 6.9 1 8.5 1C10.1 1 10.5 2.66667 10.5 3.5M6.5 3.5H10.5" stroke="#DA3D3D"/>
<path d="M5 9.5C5 9.22386 5.22386 9 5.5 9C5.77614 9 6 9.22386 6 9.5V15.5C6 15.7761 5.77614 16 5.5 16C5.22386 16 5 15.7761 5 15.5V9.5Z" fill="#DA3D3D"/>
<path d="M8 9.5C8 9.22386 8.22386 9 8.5 9C8.77614 9 9 9.22386 9 9.5V15.5C9 15.7761 8.77614 16 8.5 16C8.22386 16 8 15.7761 8 15.5V9.5Z" fill="#DA3D3D"/>
<path d="M11 9.5C11 9.22386 11.2239 9 11.5 9C11.7761 9 12 9.22386 12 9.5V15.5C12 15.7761 11.7761 16 11.5 16C11.2239 16 11 15.7761 11 15.5V9.5Z" fill="#DA3D3D"/>
</svg>
