<svg width="29" height="29" viewBox="0 0 29 29" fill="none" xmlns="http://www.w3.org/2000/svg">
<path d="M13 5.5C13 4.67157 13.6716 4 14.5 4V4C15.3284 4 16 4.67157 16 5.5V18.5C16 19.3284 15.3284 20 14.5 20V20C13.6716 20 13 19.3284 13 18.5V5.5Z" fill="white"/>
<path d="M13 22.5C13 21.6716 13.6716 21 14.5 21V21C15.3284 21 16 21.6716 16 22.5V22.5C16 23.3284 15.3284 24 14.5 24V24C13.6716 24 13 23.3284 13 22.5V22.5Z" fill="white"/>
<path d="M28 14.5C28 21.9559 21.9558 28 14.5 28C7.04416 28 1 21.9559 1 14.5C1 7.04416 7.04416 1.00001 14.5 1.00001C21.9558 1.00001 28 7.04416 28 14.5Z" stroke="white" stroke-width="2"/>
</svg>
