<svg width="21" height="19" viewBox="0 0 21 19" fill="none" xmlns="http://www.w3.org/2000/svg">
<path d="M1 16.5V2.5C1 1.3 2.33333 1 3 1H11C12 1 13.5 2.5 14 3.5C14.4 4.3 15.5 4.5 16 4.5H18.5C19.3 4.5 19.8333 5.5 20 6V16C20 17.6 19 18 18.5 18H3C1.4 18 1 17 1 16.5Z" stroke="#333A64" stroke-width="2"/>
<rect x="3.5" y="9.50003" width="12" height="2" rx="1" fill="#333A64"/>
<rect x="10.5" y="13.9019" width="6.22519" height="2" rx="1" transform="rotate(-45 10.5 13.9019)" fill="#333A64"/>
<path d="M11.2213 6.39296C10.8307 6.78348 10.8307 7.41665 11.2213 7.80717L14.6089 11.1948C14.9994 11.5853 15.6326 11.5853 16.0231 11.1948V11.1948C16.4137 10.8043 16.4137 10.1711 16.0231 9.78061L12.6355 6.39296C12.245 6.00244 11.6118 6.00244 11.2213 6.39296V6.39296Z" fill="#333A64"/>
</svg>
